<!DOCTYPE svg PUBLIC "-//W3C//DTD SVG 1.1//EN" "https://www.w3.org/Graphics/SVG/1.1/DTD/svg11.dtd"><svg xmlns="http://www.w3.org/2000/svg" id="sfn-svg" class="sfn-workflow-graph" width="212" height="428">  
<g transform="translate(14.5,19.1875)"><g class="nodes"><g class="node-container" transform="translate(96.359375,19)"><g class="node anchor"><circle class="shape" x="-16.1875" y="-9" r="26.1875"/><text class="label"><tspan xml:space="preserve" text-anchor="middle" alignment-baseline="central">Start</tspan></text></g></g><g class="node-container" transform="translate(96.359375,374)"><g class="node anchor"><circle class="shape" x="-12.1875" y="-9" r="22.1875"/><text class="label"><tspan xml:space="preserve" text-anchor="middle" alignment-baseline="central">End</tspan></text></g></g><g class="node-container" transform="translate(96.359375,82)"><g class="node state Task NotYetStarted"><rect class="shape" rx="5" ry="5" x="-69.5" y="-19" width="139" height="38"/><text class="label"><tspan xml:space="preserve" text-anchor="middle" alignment-baseline="central">Identify Input Files</tspan></text></g></g><g class="node-container" transform="translate(96.359375,196.5)"><g class="node state Map NotYetStarted Container" transform="translate(-88.859375,-70.5)"><rect class="shape" rx="5" ry="5" x="-10" y="-10" width="175.71875" height="139"/><rect class="shape" rx="5" ry="5" x="-5" y="-5" width="176.71875" height="140"/><rect class="shape" rx="5" ry="5" x="0" y="0" width="177.71875" height="141"/><g class="branches" transform="translate(20,20)"><g class="branch" transform="translate(0,0)"><g class="nodes"><g class="node-container" transform="translate(68.859375,19)"><g class="node state Task NotYetStarted"><rect class="shape" rx="5" ry="5" x="-68.859375" y="-19" width="137.71875" height="38"/><text class="label"><tspan xml:space="preserve" text-anchor="middle" alignment-baseline="central">Instrument To LAS</tspan></text></g></g><g class="node-container" transform="translate(68.859375,82)"><g class="node state Task NotYetStarted"><rect class="shape" rx="5" ry="5" x="-59.609375" y="-19" width="119.21875" height="38"/><text class="label"><tspan xml:space="preserve" text-anchor="middle" alignment-baseline="central">LAS To Polygon</tspan></text></g></g></g><g class="edges"><g class="edge"><path class="path" marker-end="url(#arrowhead66)" d="M68.859375,38L68.859375,40.08333333333333C68.859375,42.166666666666664,68.859375,46.33333333333333,68.859375,50.5C68.859375,54.666666666666664,68.859375,58.83333333333333,68.859375,60.916666666666664L68.859375,63" style="fill: none;"/><defs><marker id="arrowhead66" viewBox="0 0 10 10" refX="9" refY="5" markerUnits="strokeWidth" markerWidth="8" markerHeight="6" orient="auto"><path d="M 0 0 L 10 5 L 0 10 z"/></marker></defs></g></g></g></g><path class="path" marker-end="url(#arrowhead67)" d="M88.859375,0L88.85937499999999,1.6666666666666665C88.859375,3.333333333333333,88.859375,6.666666666666666,88.85937499999999,8.333333333333332C88.859375,10,88.859375,10,88.85937499999999,11.666666666666664C88.859375,13.333333333333332,88.859375,16.666666666666664,88.85937499999999,18.333333333333332L88.859375,20" style="fill: none;"/></g></g><g class="node-container" transform="translate(96.359375,311)"><g class="node state Task NotYetStarted"><rect class="shape" rx="5" ry="5" x="-60.671875" y="-19" width="121.34375" height="38"/><text class="label"><tspan xml:space="preserve" text-anchor="middle" alignment-baseline="central">Merge Polygons</tspan></text></g></g></g><g class="edges"><g class="edge"><path class="path" marker-end="url(#arrowhead68)" d="M96.359375,101L96.35937499999999,103.08333333333331C96.359375,105.16666666666666,96.359375,109.33333333333331,96.35937499999999,113.49999999999999C96.359375,117.66666666666666,96.359375,121.83333333333333,96.35937499999999,123.91666666666666L96.359375,126" style="fill: none;"/><defs><marker id="arrowhead68" viewBox="0 0 10 10" refX="9" refY="5" markerUnits="strokeWidth" markerWidth="8" markerHeight="6" orient="auto"><path d="M 0 0 L 10 5 L 0 10 z"/></marker></defs></g><g class="edge"><path class="path" marker-end="url(#arrowhead69)" d="M96.359375,45.1875L96.35937499999999,46.072916666666664C96.359375,46.95833333333333,96.359375,48.729166666666664,96.35937499999999,51.697916666666664C96.359375,54.666666666666664,96.359375,58.83333333333333,96.35937499999999,60.916666666666664L96.359375,63" style="fill: none;"/><defs><marker id="arrowhead69" viewBox="0 0 10 10" refX="9" refY="5" markerUnits="strokeWidth" markerWidth="8" markerHeight="6" orient="auto"><path d="M 0 0 L 10 5 L 0 10 z"/></marker></defs></g><g class="edge"><path class="path" marker-end="url(#arrowhead70)" d="M96.359375,267L96.35937499999999,269.0833333333333C96.359375,271.16666666666663,96.359375,275.3333333333333,96.35937499999999,279.5C96.359375,283.66666666666663,96.359375,287.8333333333333,96.35937499999999,289.9166666666667L96.359375,292" style="fill: none;"/><defs><marker id="arrowhead70" viewBox="0 0 10 10" refX="9" refY="5" markerUnits="strokeWidth" markerWidth="8" markerHeight="6" orient="auto"><path d="M 0 0 L 10 5 L 0 10 z"/></marker></defs></g><g class="edge"><path class="path" marker-end="url(#arrowhead71)" d="M96.359375,330L96.35937499999999,332.0833333333333C96.359375,334.16666666666663,96.359375,338.3333333333333,96.35937499999999,341.96875C96.359375,345.60416666666663,96.359375,348.7083333333333,96.35937499999999,350.2604166666667L96.359375,351.8125" style="fill: none;"/><defs><marker id="arrowhead71" viewBox="0 0 10 10" refX="9" refY="5" markerUnits="strokeWidth" markerWidth="8" markerHeight="6" orient="auto"><path d="M 0 0 L 10 5 L 0 10 z"/></marker></defs></g></g></g><style xmlns="http://www.w3.org/1999/xhtml">.node &gt; .shape {stroke: #555555;stroke-width: 0.6px;fill: #FFFFFF;} path {stroke: #555;background-color: #555;stroke-width: 1px;} .node.state.NotYetStarted &gt; .shape,.node.state.Container &gt; .shape {stroke-dasharray: 5 2;} .node.state.Failed &gt; .shape,rect.legend.Failed {fill: #DE322F;} .node.state.CaughtError &gt; .shape,rect.legend.CaughtError {fill: #FFA500;} .node.state.Succeeded &gt; .shape,rect.legend.Succeeded {fill: #2BD62E;} .node.state.InProgress &gt; .shape,rect.legend.InProgress {fill: #53c9ed;} .node.state.Cancelled &gt; .shape,rect.legend.Cancelled {fill: #dddddd;} .node.anchor &gt; .shape {fill: #FFDA75;} .node.state.hovered:not(.selected):not(.NotYetStarted) &gt; .shape,.node.selected &gt; .shape {stroke: #555555;stroke-width: 2px;} .node.state.Container.Failed &gt; .shape {fill: #EE9592;} .node.state.Container.CaughtError &gt; .shape {fill: #FFD27F;} .node.state.Container.Succeeded &gt; .shape {fill: #91EA9A;} .node.state.Container.InProgress &gt; .shape {fill :#A9E4F7;} .node.state.Container.Cancelled &gt; .shape {fill: #EEEEEE;} marker {fill: #555555;} .node.anchor,.node.state.NotYetStarted {cursor: default;} .node.state {cursor: pointer;} tspan .label {font-weight: normal;font-size: 12px;text-shadow: none;} </style></svg>