<!DOCTYPE svg PUBLIC "-//W3C//DTD SVG 1.1//EN" "https://www.w3.org/Graphics/SVG/1.1/DTD/svg11.dtd"><svg xmlns="http://www.w3.org/2000/svg" id="sfn-svg" class="sfn-workflow-graph" width="163" height="388">  
<g transform="translate(12,19.1875)"><g class="nodes"><g class="node-container" transform="translate(69.0546875,19)"><g class="node anchor"><circle class="shape" x="-16.1875" y="-9" r="26.1875"/><text class="label"><tspan xml:space="preserve" text-anchor="middle" alignment-baseline="central">Start</tspan></text></g></g><g class="node-container" transform="translate(69.0546875,334)"><g class="node anchor"><circle class="shape" x="-12.1875" y="-9" r="22.1875"/><text class="label"><tspan xml:space="preserve" text-anchor="middle" alignment-baseline="central">End</tspan></text></g></g><g class="node-container" transform="translate(69.0546875,82)"><g class="node state Task Succeeded"><rect class="shape" rx="5" ry="5" x="-68.375" y="-19" width="136.75" height="38"/><text class="label"><tspan xml:space="preserve" text-anchor="middle" alignment-baseline="central">Start EC2 Instance</tspan></text></g></g><g class="node-container" transform="translate(69.0546875,145)"><g class="node state Pass Succeeded"><rect class="shape" rx="5" ry="5" x="-69.0546875" y="-19" width="138.109375" height="38"/><text class="label"><tspan xml:space="preserve" text-anchor="middle" alignment-baseline="central">Wait For EC2 Start</tspan></text></g></g><g class="node-container" transform="translate(69.0546875,208)"><g class="node state Task Succeeded"><rect class="shape" rx="5" ry="5" x="-54.359375" y="-19" width="108.71875" height="38"/><text class="label"><tspan xml:space="preserve" text-anchor="middle" alignment-baseline="central">Do Processing</tspan></text></g></g><g class="node-container" transform="translate(69.0546875,271)"><g class="node state Task Succeeded"><rect class="shape" rx="5" ry="5" x="-67.3828125" y="-19" width="134.765625" height="38"/><text class="label"><tspan xml:space="preserve" text-anchor="middle" alignment-baseline="central">Stop EC2 Instance</tspan></text></g></g></g><g class="edges"><g class="edge"><path class="path" marker-end="url(#arrowhead61)" d="M69.0546875,101L69.05468749999999,103.08333333333331C69.0546875,105.16666666666666,69.0546875,109.33333333333331,69.05468749999999,113.49999999999999C69.0546875,117.66666666666666,69.0546875,121.83333333333333,69.05468749999999,123.91666666666666L69.0546875,126" style="fill: none;"/><defs><marker id="arrowhead61" viewBox="0 0 10 10" refX="9" refY="5" markerUnits="strokeWidth" markerWidth="8" markerHeight="6" orient="auto"><path d="M 0 0 L 10 5 L 0 10 z"/></marker></defs></g><g class="edge"><path class="path" marker-end="url(#arrowhead62)" d="M69.0546875,45.1875L69.05468749999999,46.072916666666664C69.0546875,46.95833333333333,69.0546875,48.729166666666664,69.05468749999999,51.697916666666664C69.0546875,54.666666666666664,69.0546875,58.83333333333333,69.05468749999999,60.916666666666664L69.0546875,63" style="fill: none;"/><defs><marker id="arrowhead62" viewBox="0 0 10 10" refX="9" refY="5" markerUnits="strokeWidth" markerWidth="8" markerHeight="6" orient="auto"><path d="M 0 0 L 10 5 L 0 10 z"/></marker></defs></g><g class="edge"><path class="path" marker-end="url(#arrowhead63)" d="M69.0546875,164L69.05468749999999,166.08333333333331C69.0546875,168.16666666666666,69.0546875,172.33333333333331,69.05468749999999,176.5C69.0546875,180.66666666666666,69.0546875,184.83333333333331,69.05468749999999,186.91666666666666L69.0546875,189" style="fill: none;"/><defs><marker id="arrowhead63" viewBox="0 0 10 10" refX="9" refY="5" markerUnits="strokeWidth" markerWidth="8" markerHeight="6" orient="auto"><path d="M 0 0 L 10 5 L 0 10 z"/></marker></defs></g><g class="edge"><path class="path" marker-end="url(#arrowhead64)" d="M69.0546875,227L69.05468749999999,229.0833333333333C69.0546875,231.16666666666663,69.0546875,235.33333333333331,69.05468749999999,239.5C69.0546875,243.66666666666666,69.0546875,247.83333333333331,69.05468749999999,249.91666666666666L69.0546875,252" style="fill: none;"/><defs><marker id="arrowhead64" viewBox="0 0 10 10" refX="9" refY="5" markerUnits="strokeWidth" markerWidth="8" markerHeight="6" orient="auto"><path d="M 0 0 L 10 5 L 0 10 z"/></marker></defs></g><g class="edge"><path class="path" marker-end="url(#arrowhead65)" d="M69.0546875,290L69.05468749999999,292.0833333333333C69.0546875,294.16666666666663,69.0546875,298.3333333333333,69.05468749999999,301.96875C69.0546875,305.60416666666663,69.0546875,308.7083333333333,69.05468749999999,310.2604166666667L69.0546875,311.8125" style="fill: none;"/><defs><marker id="arrowhead65" viewBox="0 0 10 10" refX="9" refY="5" markerUnits="strokeWidth" markerWidth="8" markerHeight="6" orient="auto"><path d="M 0 0 L 10 5 L 0 10 z"/></marker></defs></g></g></g><style xmlns="http://www.w3.org/1999/xhtml">.node &gt; .shape {stroke: #555555;stroke-width: 0.6px;fill: #FFFFFF;} path {stroke: #555;background-color: #555;stroke-width: 1px;} .node.state.NotYetStarted &gt; .shape,.node.state.Container &gt; .shape {stroke-dasharray: 5 2;} .node.state.Failed &gt; .shape,rect.legend.Failed {fill: #DE322F;} .node.state.CaughtError &gt; .shape,rect.legend.CaughtError {fill: #FFA500;} .node.state.Succeeded &gt; .shape,rect.legend.Succeeded {fill: #2BD62E;} .node.state.InProgress &gt; .shape,rect.legend.InProgress {fill: #53c9ed;} .node.state.Cancelled &gt; .shape,rect.legend.Cancelled {fill: #dddddd;} .node.anchor &gt; .shape {fill: #FFDA75;} .node.state.hovered:not(.selected):not(.NotYetStarted) &gt; .shape,.node.selected &gt; .shape {stroke: #555555;stroke-width: 2px;} .node.state.Container.Failed &gt; .shape {fill: #EE9592;} .node.state.Container.CaughtError &gt; .shape {fill: #FFD27F;} .node.state.Container.Succeeded &gt; .shape {fill: #91EA9A;} .node.state.Container.InProgress &gt; .shape {fill :#A9E4F7;} .node.state.Container.Cancelled &gt; .shape {fill: #EEEEEE;} marker {fill: #555555;} .node.anchor,.node.state.NotYetStarted {cursor: default;} .node.state {cursor: pointer;} tspan .label {font-weight: normal;font-size: 12px;text-shadow: none;} </style></svg>