<!DOCTYPE svg PUBLIC "-//W3C//DTD SVG 1.1//EN" "https://www.w3.org/Graphics/SVG/1.1/DTD/svg11.dtd"><svg xmlns="http://www.w3.org/2000/svg" id="sfn-svg" class="sfn-workflow-graph" width="605" height="322">  
<g transform="translate(12,19.1875)"><g class="nodes"><g class="node-container" transform="translate(290.46875,19)"><g class="node anchor"><circle class="shape" x="-16.1875" y="-9" r="26.1875"/><text class="label"><tspan xml:space="preserve" text-anchor="middle" alignment-baseline="central">Start</tspan></text></g></g><g class="node-container" transform="translate(290.46875,268)"><g class="node anchor"><circle class="shape" x="-12.1875" y="-9" r="22.1875"/><text class="label"><tspan xml:space="preserve" text-anchor="middle" alignment-baseline="central">End</tspan></text></g></g><g class="node-container" transform="translate(290.46875,143.5)"><g class="node state Parallel Container Succeeded" transform="translate(-290.46875,-80.5)"><rect class="shape" rx="32.2" ry="32.2" x="0" y="0" width="580.9375" height="161"/><g class="branches" transform="translate(20,40)"><g class="branch" transform="translate(0,0)"><g class="nodes"><g class="node-container" transform="translate(85.8125,19)"><g class="node state Task Succeeded"><rect class="shape" rx="5" ry="5" x="-85.8125" y="-19" width="171.625" height="38"/><text class="label"><tspan xml:space="preserve" text-anchor="middle" alignment-baseline="central">Add Overlays and Tiling</tspan></text></g></g><g class="node-container" transform="translate(85.8125,82)"><g class="node state Task Succeeded"><rect class="shape" rx="5" ry="5" x="-63.359375" y="-19" width="126.71875" height="38"/><text class="label"><tspan xml:space="preserve" text-anchor="middle" alignment-baseline="central">Overlay Task Arn</tspan></text></g></g></g><g class="edges"><g class="edge"><path class="path" marker-end="url(#arrowhead48)" d="M85.8125,38L85.81249999999999,40.08333333333333C85.8125,42.166666666666664,85.8125,46.33333333333333,85.81249999999999,50.5C85.8125,54.666666666666664,85.8125,58.83333333333333,85.81249999999999,60.916666666666664L85.8125,63" style="fill: none;"/><defs><marker id="arrowhead48" viewBox="0 0 10 10" refX="9" refY="5" markerUnits="strokeWidth" markerWidth="8" markerHeight="6" orient="auto"><path d="M 0 0 L 10 5 L 0 10 z"/></marker></defs></g></g></g><g class="branch" transform="translate(191.625,0)"><g class="nodes"><g class="node-container" transform="translate(96.234375,19)"><g class="node state Task Succeeded"><rect class="shape" rx="5" ry="5" x="-67.28125" y="-19" width="134.5625" height="38"/><text class="label"><tspan xml:space="preserve" text-anchor="middle" alignment-baseline="central">Raster To Polygon</tspan></text></g></g><g class="node-container" transform="translate(96.234375,82)"><g class="node state Task Succeeded"><rect class="shape" rx="5" ry="5" x="-96.234375" y="-19" width="192.46875" height="38"/><text class="label"><tspan xml:space="preserve" text-anchor="middle" alignment-baseline="central">Raster To Polygon Task Arn</tspan></text></g></g></g><g class="edges"><g class="edge"><path class="path" marker-end="url(#arrowhead49)" d="M96.234375,38L96.234375,40.08333333333333C96.234375,42.166666666666664,96.234375,46.33333333333333,96.234375,50.5C96.234375,54.666666666666664,96.234375,58.83333333333333,96.234375,60.916666666666664L96.234375,63" style="fill: none;"/><defs><marker id="arrowhead49" viewBox="0 0 10 10" refX="9" refY="5" markerUnits="strokeWidth" markerWidth="8" markerHeight="6" orient="auto"><path d="M 0 0 L 10 5 L 0 10 z"/></marker></defs></g></g></g><g class="branch" transform="translate(404.09375,0)"><g class="nodes"><g class="node-container" transform="translate(68.421875,19)"><g class="node state Task Succeeded"><rect class="shape" rx="5" ry="5" x="-54.78125" y="-19" width="109.5625" height="38"/><text class="label"><tspan xml:space="preserve" text-anchor="middle" alignment-baseline="central">Add Hillshade</tspan></text></g></g><g class="node-container" transform="translate(68.421875,82)"><g class="node state Task Succeeded"><rect class="shape" rx="5" ry="5" x="-68.421875" y="-19" width="136.84375" height="38"/><text class="label"><tspan xml:space="preserve" text-anchor="middle" alignment-baseline="central">Hillshade Task Arn</tspan></text></g></g></g><g class="edges"><g class="edge"><path class="path" marker-end="url(#arrowhead50)" d="M68.421875,38L68.42187499999999,40.08333333333333C68.421875,42.166666666666664,68.421875,46.33333333333333,68.42187499999999,50.5C68.421875,54.666666666666664,68.421875,58.83333333333333,68.42187499999999,60.916666666666664L68.421875,63" style="fill: none;"/><defs><marker id="arrowhead50" viewBox="0 0 10 10" refX="9" refY="5" markerUnits="strokeWidth" markerWidth="8" markerHeight="6" orient="auto"><path d="M 0 0 L 10 5 L 0 10 z"/></marker></defs></g></g></g></g><path class="path" marker-end="url(#arrowhead51)" d="M290.46875,0L290.46874999999994,3.333333333333333C290.46875,6.666666666666666,290.46875,13.333333333333332,259.6927083333333,16.666666666666664C228.91666666666663,20,167.36458333333331,20,136.58854166666666,23.33333333333333C105.81249999999999,26.666666666666664,105.81249999999999,33.33333333333333,105.81249999999997,36.666666666666664L105.8125,40" style="fill: none;"/><path class="path" marker-end="url(#arrowhead52)" d="M290.46875,0L290.46874999999994,3.333333333333333C290.46875,6.666666666666666,290.46875,13.333333333333332,293.36718749999994,16.666666666666664C296.265625,20,302.0625,20,304.96093749999994,23.33333333333333C307.859375,26.666666666666664,307.859375,33.33333333333333,307.85937499999994,36.666666666666664L307.859375,40" style="fill: none;"/><path class="path" marker-end="url(#arrowhead53)" d="M290.46875,0L290.46874999999994,3.333333333333333C290.46875,6.666666666666666,290.46875,13.333333333333332,324.14322916666663,16.666666666666664C357.8177083333333,20,425.16666666666663,20,458.8411458333333,23.33333333333333C492.515625,26.666666666666664,492.515625,33.33333333333333,492.515625,36.666666666666664L492.515625,40" style="fill: none;"/></g></g></g><g class="edges"><g class="edge"><path class="path" marker-end="url(#arrowhead54)" d="M290.46875,45.1875L290.46874999999994,46.072916666666664C290.46875,46.95833333333333,290.46875,48.729166666666664,290.46874999999994,51.697916666666664C290.46875,54.666666666666664,290.46875,58.83333333333333,290.46874999999994,60.916666666666664L290.46875,63" style="fill: none;"/><defs><marker id="arrowhead54" viewBox="0 0 10 10" refX="9" refY="5" markerUnits="strokeWidth" markerWidth="8" markerHeight="6" orient="auto"><path d="M 0 0 L 10 5 L 0 10 z"/></marker></defs></g><g class="edge"><path class="path" marker-end="url(#arrowhead55)" d="M290.46875,224L290.46874999999994,226.0833333333333C290.46875,228.16666666666663,290.46875,232.33333333333331,290.46874999999994,235.96875C290.46875,239.60416666666666,290.46875,242.70833333333331,290.46874999999994,244.26041666666666L290.46875,245.8125" style="fill: none;"/><defs><marker id="arrowhead55" viewBox="0 0 10 10" refX="9" refY="5" markerUnits="strokeWidth" markerWidth="8" markerHeight="6" orient="auto"><path d="M 0 0 L 10 5 L 0 10 z"/></marker></defs></g></g></g><style xmlns="http://www.w3.org/1999/xhtml">.node &gt; .shape {stroke: #555555;stroke-width: 0.6px;fill: #FFFFFF;} path {stroke: #555;background-color: #555;stroke-width: 1px;} .node.state.NotYetStarted &gt; .shape,.node.state.Container &gt; .shape {stroke-dasharray: 5 2;} .node.state.Failed &gt; .shape,rect.legend.Failed {fill: #DE322F;} .node.state.CaughtError &gt; .shape,rect.legend.CaughtError {fill: #FFA500;} .node.state.Succeeded &gt; .shape,rect.legend.Succeeded {fill: #2BD62E;} .node.state.InProgress &gt; .shape,rect.legend.InProgress {fill: #53c9ed;} .node.state.Cancelled &gt; .shape,rect.legend.Cancelled {fill: #dddddd;} .node.anchor &gt; .shape {fill: #FFDA75;} .node.state.hovered:not(.selected):not(.NotYetStarted) &gt; .shape,.node.selected &gt; .shape {stroke: #555555;stroke-width: 2px;} .node.state.Container.Failed &gt; .shape {fill: #EE9592;} .node.state.Container.CaughtError &gt; .shape {fill: #FFD27F;} .node.state.Container.Succeeded &gt; .shape {fill: #91EA9A;} .node.state.Container.InProgress &gt; .shape {fill :#A9E4F7;} .node.state.Container.Cancelled &gt; .shape {fill: #EEEEEE;} marker {fill: #555555;} .node.anchor,.node.state.NotYetStarted {cursor: default;} .node.state {cursor: pointer;} tspan .label {font-weight: normal;font-size: 12px;text-shadow: none;} </style></svg>