<!DOCTYPE svg PUBLIC "-//W3C//DTD SVG 1.1//EN" "https://www.w3.org/Graphics/SVG/1.1/DTD/svg11.dtd"><svg xmlns="http://www.w3.org/2000/svg" id="sfn-svg" class="sfn-workflow-graph" width="420" height="680">  
<g transform="translate(14.5,19.1875)"><g class="nodes"><g class="node-container" transform="translate(242.06640625,19)"><g class="node anchor"><circle class="shape" x="-16.1875" y="-9" r="26.1875"/><text class="label"><tspan xml:space="preserve" text-anchor="middle" alignment-baseline="central">Start</tspan></text></g></g><g class="node-container" transform="translate(242.06640625,626)"><g class="node anchor"><circle class="shape" x="-12.1875" y="-9" r="22.1875"/><text class="label"><tspan xml:space="preserve" text-anchor="middle" alignment-baseline="central">End</tspan></text></g></g><g class="node-container" transform="translate(242.06640625,82)"><g class="node state Task Succeeded"><rect class="shape" rx="5" ry="5" x="-95.328125" y="-19" width="190.65625" height="38"/><text class="label"><tspan xml:space="preserve" text-anchor="middle" alignment-baseline="central">Identify Unprocessed Grids</tspan></text></g></g><g class="node-container" transform="translate(242.06640625,145)"><g class="node state Choice Succeeded"><rect class="shape" rx="5" ry="5" x="-65.9375" y="-19" width="131.875" height="38"/><text class="label"><tspan xml:space="preserve" text-anchor="middle" alignment-baseline="central">Confirm Proceed?</tspan></text></g></g><g class="node-container" transform="translate(149.7109375,354)"><g class="node state Map Container Succeeded" transform="translate(-142.2109375,-165)"><rect class="shape" rx="5" ry="5" x="-10" y="-10" width="282.421875" height="328"/><rect class="shape" rx="5" ry="5" x="-5" y="-5" width="283.421875" height="329"/><rect class="shape" rx="5" ry="5" x="0" y="0" width="284.421875" height="330"/><g class="branches" transform="translate(20,20)"><g class="branch" transform="translate(0,0)"><g class="nodes"><g class="node-container" transform="translate(89.953125,19)"><g class="node state Wait Succeeded"><rect class="shape" rx="5" ry="5" x="-80.9375" y="-19" width="161.875" height="38"/><text class="label"><tspan xml:space="preserve" text-anchor="middle" alignment-baseline="central">Avoid Collisions Pause</tspan></text></g></g><g class="node-container" transform="translate(89.953125,82)"><g class="node state Task Succeeded"><rect class="shape" rx="5" ry="5" x="-89.953125" y="-19" width="179.90625" height="38"/><text class="label"><tspan xml:space="preserve" text-anchor="middle" alignment-baseline="central">Select Unprocessed Grids</tspan></text></g></g><g class="node-container" transform="translate(89.953125,145)"><g class="node state Task Succeeded"><rect class="shape" rx="5" ry="5" x="-53.3203125" y="-19" width="106.640625" height="38"/><text class="label"><tspan xml:space="preserve" text-anchor="middle" alignment-baseline="central">Build Product</tspan></text></g></g><g class="node-container" transform="translate(153.109375,208)"><g class="node state Task Succeeded"><rect class="shape" rx="5" ry="5" x="-91.3125" y="-19" width="182.625" height="38"/><text class="label"><tspan xml:space="preserve" text-anchor="middle" alignment-baseline="central">Save Product Information</tspan></text></g></g><g class="node-container" transform="translate(89.953125,271)"><g class="node state Pass Succeeded"><rect class="shape" rx="5" ry="5" x="-57.609375" y="-19" width="115.21875" height="38"/><text class="label"><tspan xml:space="preserve" text-anchor="middle" alignment-baseline="central">Finish Iteration</tspan></text></g></g></g><g class="edges"><g class="edge"><path class="path" marker-end="url(#arrowhead14)" d="M89.953125,38L89.953125,40.08333333333333C89.953125,42.166666666666664,89.953125,46.33333333333333,89.953125,50.5C89.953125,54.666666666666664,89.953125,58.83333333333333,89.953125,60.916666666666664L89.953125,63" style="fill: none;"/><defs><marker id="arrowhead14" viewBox="0 0 10 10" refX="9" refY="5" markerUnits="strokeWidth" markerWidth="8" markerHeight="6" orient="auto"><path d="M 0 0 L 10 5 L 0 10 z"/></marker></defs></g><g class="edge"><path class="path" marker-end="url(#arrowhead15)" d="M89.953125,101L89.953125,103.08333333333331C89.953125,105.16666666666666,89.953125,109.33333333333331,89.953125,113.49999999999999C89.953125,117.66666666666666,89.953125,121.83333333333333,89.953125,123.91666666666666L89.953125,126" style="fill: none;"/><defs><marker id="arrowhead15" viewBox="0 0 10 10" refX="9" refY="5" markerUnits="strokeWidth" markerWidth="8" markerHeight="6" orient="auto"><path d="M 0 0 L 10 5 L 0 10 z"/></marker></defs></g><g class="edge"><path class="path" marker-end="url(#arrowhead16)" d="M128.04737103174602,164L132.22437169312167,166.08333333333331C136.40137235449734,168.16666666666666,144.75537367724866,172.33333333333331,148.93237433862433,176.5C153.109375,180.66666666666666,153.109375,184.83333333333331,153.10937499999997,186.91666666666666L153.109375,189" style="fill: none;"/><defs><marker id="arrowhead16" viewBox="0 0 10 10" refX="9" refY="5" markerUnits="strokeWidth" markerWidth="8" markerHeight="6" orient="auto"><path d="M 0 0 L 10 5 L 0 10 z"/></marker></defs></g><g class="edge"><path class="path" marker-end="url(#arrowhead17)" d="M51.85887896825397,164L47.6818783068783,166.08333333333331C43.50487764550264,168.16666666666666,35.150876322751316,172.33333333333331,30.973875661375658,179.66666666666666C26.796875,187,26.796875,197.5,26.796874999999996,207.99999999999997C26.796875,218.5,26.796875,229,30.973875661375658,236.33333333333331C35.150876322751316,243.66666666666666,43.50487764550264,247.83333333333331,47.6818783068783,249.91666666666666L51.85887896825397,252" style="fill: none;"/><defs><marker id="arrowhead17" viewBox="0 0 10 10" refX="9" refY="5" markerUnits="strokeWidth" markerWidth="8" markerHeight="6" orient="auto"><path d="M 0 0 L 10 5 L 0 10 z"/></marker></defs></g><g class="edge"><path class="path" marker-end="url(#arrowhead18)" d="M153.109375,227L153.10937499999997,229.0833333333333C153.109375,231.16666666666663,153.109375,235.33333333333331,148.93237433862433,239.5C144.75537367724866,243.66666666666666,136.40137235449734,247.83333333333331,132.2243716931217,249.91666666666666L128.04737103174602,252" style="fill: none;"/><defs><marker id="arrowhead18" viewBox="0 0 10 10" refX="9" refY="5" markerUnits="strokeWidth" markerWidth="8" markerHeight="6" orient="auto"><path d="M 0 0 L 10 5 L 0 10 z"/></marker></defs></g></g></g></g><path class="path" marker-end="url(#arrowhead19)" d="M142.2109375,0L142.21093749999997,1.6666666666666665C142.2109375,3.333333333333333,142.2109375,6.666666666666666,136.83463541666666,8.333333333333332C131.45833333333331,10,120.70572916666666,10,115.32942708333333,11.666666666666664C109.953125,13.333333333333332,109.953125,16.666666666666664,109.95312499999999,18.333333333333332L109.953125,20" style="fill: none;"/></g></g><g class="node-container" transform="translate(334.421875,563)"><g class="node state Fail NotYetStarted"><rect class="shape" rx="5" ry="5" x="-58.828125" y="-19" width="117.65625" height="38"/><text class="label"><tspan xml:space="preserve" text-anchor="middle" alignment-baseline="central">Do not proceed</tspan></text></g></g><g class="node-container" transform="translate(149.7109375,563)"><g class="node state Pass Succeeded"><rect class="shape" rx="5" ry="5" x="-44.140625" y="-19" width="88.28125" height="38"/><text class="label"><tspan xml:space="preserve" text-anchor="middle" alignment-baseline="central">Final State</tspan></text></g></g></g><g class="edges"><g class="edge"><path class="path" marker-end="url(#arrowhead20)" d="M242.06640625,101L242.06640624999997,103.08333333333331C242.06640625,105.16666666666666,242.06640625,109.33333333333331,242.06640624999997,113.49999999999999C242.06640625,117.66666666666666,242.06640625,121.83333333333333,242.06640624999997,123.91666666666666L242.06640625,126" style="fill: none;"/><defs><marker id="arrowhead20" viewBox="0 0 10 10" refX="9" refY="5" markerUnits="strokeWidth" markerWidth="8" markerHeight="6" orient="auto"><path d="M 0 0 L 10 5 L 0 10 z"/></marker></defs></g><g class="edge"><path class="path" marker-end="url(#arrowhead21)" d="M242.06640625,45.1875L242.06640624999997,46.072916666666664C242.06640625,46.95833333333333,242.06640625,48.729166666666664,242.06640624999997,51.697916666666664C242.06640625,54.666666666666664,242.06640625,58.83333333333333,242.06640624999997,60.916666666666664L242.06640625,63" style="fill: none;"/><defs><marker id="arrowhead21" viewBox="0 0 10 10" refX="9" refY="5" markerUnits="strokeWidth" markerWidth="8" markerHeight="6" orient="auto"><path d="M 0 0 L 10 5 L 0 10 z"/></marker></defs></g><g class="edge"><path class="path" marker-end="url(#arrowhead22)" d="M186.35993303571428,164L180.2517671130952,166.08333333333331C174.14360119047618,168.16666666666666,161.92726934523807,172.33333333333331,155.81910342261904,176.5C149.7109375,180.66666666666666,149.7109375,184.83333333333331,149.71093749999997,186.91666666666666L149.7109375,189" style="fill: none;"/><defs><marker id="arrowhead22" viewBox="0 0 10 10" refX="9" refY="5" markerUnits="strokeWidth" markerWidth="8" markerHeight="6" orient="auto"><path d="M 0 0 L 10 5 L 0 10 z"/></marker></defs></g><g class="edge"><path class="path" marker-end="url(#arrowhead23)" d="M297.7728794642857,164L303.88104538690476,166.08333333333331C309.9892113095238,168.16666666666666,322.2055431547619,172.33333333333331,328.31370907738096,204C334.421875,235.66666666666666,334.421875,294.8333333333333,334.421875,354C334.421875,413.16666666666663,334.421875,472.3333333333333,334.421875,504C334.421875,535.6666666666666,334.421875,539.8333333333333,334.421875,541.9166666666666L334.421875,544" style="fill: none;"/><defs><marker id="arrowhead23" viewBox="0 0 10 10" refX="9" refY="5" markerUnits="strokeWidth" markerWidth="8" markerHeight="6" orient="auto"><path d="M 0 0 L 10 5 L 0 10 z"/></marker></defs></g><g class="edge"><path class="path" marker-end="url(#arrowhead24)" d="M149.7109375,519L149.71093749999997,521.0833333333334C149.7109375,523.1666666666666,149.7109375,527.3333333333333,149.71093749999997,531.5C149.7109375,535.6666666666666,149.7109375,539.8333333333333,149.71093749999997,541.9166666666666L149.7109375,544" style="fill: none;"/><defs><marker id="arrowhead24" viewBox="0 0 10 10" refX="9" refY="5" markerUnits="strokeWidth" markerWidth="8" markerHeight="6" orient="auto"><path d="M 0 0 L 10 5 L 0 10 z"/></marker></defs></g><g class="edge"><path class="path" marker-end="url(#arrowhead25)" d="M149.7109375,582L149.71093749999997,584.0833333333334C149.7109375,586.1666666666666,149.7109375,590.3333333333333,161.60357557054522,596.4729299750825C173.49621364109043,602.6125266168317,197.28148978218087,610.7250532336635,209.1741278527261,614.7813165420794L221.06676592327133,618.8375798504953" style="fill: none;"/><defs><marker id="arrowhead25" viewBox="0 0 10 10" refX="9" refY="5" markerUnits="strokeWidth" markerWidth="8" markerHeight="6" orient="auto"><path d="M 0 0 L 10 5 L 0 10 z"/></marker></defs></g><g class="edge"><path class="path" marker-end="url(#arrowhead26)" d="M334.421875,582L334.421875,584.0833333333334C334.421875,586.1666666666666,334.421875,590.3333333333333,322.5292369294548,596.4729299750825C310.63659885890957,602.6125266168317,286.85132271781913,610.7250532336635,274.9586846472739,614.7813165420794L263.0660465767287,618.8375798504953" style="fill: none;"/><defs><marker id="arrowhead26" viewBox="0 0 10 10" refX="9" refY="5" markerUnits="strokeWidth" markerWidth="8" markerHeight="6" orient="auto"><path d="M 0 0 L 10 5 L 0 10 z"/></marker></defs></g></g></g><style xmlns="http://www.w3.org/1999/xhtml">.node &gt; .shape {stroke: #555555;stroke-width: 0.6px;fill: #FFFFFF;} path {stroke: #555;background-color: #555;stroke-width: 1px;} .node.state.NotYetStarted &gt; .shape,.node.state.Container &gt; .shape {stroke-dasharray: 5 2;} .node.state.Failed &gt; .shape,rect.legend.Failed {fill: #DE322F;} .node.state.CaughtError &gt; .shape,rect.legend.CaughtError {fill: #FFA500;} .node.state.Succeeded &gt; .shape,rect.legend.Succeeded {fill: #2BD62E;} .node.state.InProgress &gt; .shape,rect.legend.InProgress {fill: #53c9ed;} .node.state.Cancelled &gt; .shape,rect.legend.Cancelled {fill: #dddddd;} .node.anchor &gt; .shape {fill: #FFDA75;} .node.state.hovered:not(.selected):not(.NotYetStarted) &gt; .shape,.node.selected &gt; .shape {stroke: #555555;stroke-width: 2px;} .node.state.Container.Failed &gt; .shape {fill: #EE9592;} .node.state.Container.CaughtError &gt; .shape {fill: #FFD27F;} .node.state.Container.Succeeded &gt; .shape {fill: #91EA9A;} .node.state.Container.InProgress &gt; .shape {fill :#A9E4F7;} .node.state.Container.Cancelled &gt; .shape {fill: #EEEEEE;} marker {fill: #555555;} .node.anchor,.node.state.NotYetStarted {cursor: default;} .node.state {cursor: pointer;} tspan .label {font-weight: normal;font-size: 12px;text-shadow: none;} </style></svg>